<mxfile host="app.diagrams.net" modified="2023-04-25T20:55:39.200Z" agent="Mozilla/5.0 (Windows NT 6.3; Win64; x64) AppleWebKit/537.36 (KHTML, like Gecko) Chrome/110.0.0.0 YaBrowser/23.3.2.810 Yowser/2.5 Safari/537.36" etag="0IF-73UjNrb-_M69oZnL" version="21.2.2" type="github">
  <diagram name="Страница 1" id="aZw5PT4t6Rbz9eOodo69">
    <mxGraphModel dx="386" dy="230" grid="1" gridSize="10" guides="1" tooltips="1" connect="1" arrows="1" fold="1" page="1" pageScale="1" pageWidth="827" pageHeight="1169" math="0" shadow="0">
      <root>
        <mxCell id="0" />
        <mxCell id="1" parent="0" />
        <mxCell id="HtTwXuOQGNRcYZnUy2OJ-3" value="" style="edgeStyle=orthogonalEdgeStyle;rounded=0;orthogonalLoop=1;jettySize=auto;html=1;" parent="1" source="HtTwXuOQGNRcYZnUy2OJ-1" edge="1">
          <mxGeometry relative="1" as="geometry">
            <mxPoint x="260" y="120" as="targetPoint" />
          </mxGeometry>
        </mxCell>
        <mxCell id="HtTwXuOQGNRcYZnUy2OJ-1" value="start" style="rounded=1;whiteSpace=wrap;html=1;" parent="1" vertex="1">
          <mxGeometry x="200" y="40" width="120" height="60" as="geometry" />
        </mxCell>
        <mxCell id="BD58i8v402gFr6tfGI4j-9" style="edgeStyle=orthogonalEdgeStyle;rounded=0;orthogonalLoop=1;jettySize=auto;html=1;" edge="1" parent="1" source="BD58i8v402gFr6tfGI4j-1">
          <mxGeometry relative="1" as="geometry">
            <mxPoint x="260" y="280" as="targetPoint" />
          </mxGeometry>
        </mxCell>
        <mxCell id="BD58i8v402gFr6tfGI4j-1" value="string[] arrayFirst&lt;br&gt;int maxElem" style="whiteSpace=wrap;html=1;aspect=fixed;" vertex="1" parent="1">
          <mxGeometry x="200" y="120" width="120" height="120" as="geometry" />
        </mxCell>
        <mxCell id="BD58i8v402gFr6tfGI4j-8" value="" style="group" vertex="1" connectable="0" parent="1">
          <mxGeometry x="160" y="381" width="200" height="40" as="geometry" />
        </mxCell>
        <mxCell id="BD58i8v402gFr6tfGI4j-2" value="" style="endArrow=none;html=1;rounded=0;" edge="1" parent="BD58i8v402gFr6tfGI4j-8">
          <mxGeometry width="50" height="50" relative="1" as="geometry">
            <mxPoint x="40" as="sourcePoint" />
            <mxPoint x="160" as="targetPoint" />
          </mxGeometry>
        </mxCell>
        <mxCell id="BD58i8v402gFr6tfGI4j-3" value="" style="endArrow=none;html=1;rounded=0;" edge="1" parent="BD58i8v402gFr6tfGI4j-8">
          <mxGeometry width="50" height="50" relative="1" as="geometry">
            <mxPoint x="40" y="40" as="sourcePoint" />
            <mxPoint x="160" y="40" as="targetPoint" />
          </mxGeometry>
        </mxCell>
        <mxCell id="BD58i8v402gFr6tfGI4j-4" value="" style="endArrow=none;html=1;rounded=0;" edge="1" parent="BD58i8v402gFr6tfGI4j-8">
          <mxGeometry width="50" height="50" relative="1" as="geometry">
            <mxPoint x="160" as="sourcePoint" />
            <mxPoint x="200" y="20" as="targetPoint" />
          </mxGeometry>
        </mxCell>
        <mxCell id="BD58i8v402gFr6tfGI4j-5" value="" style="endArrow=none;html=1;rounded=0;" edge="1" parent="BD58i8v402gFr6tfGI4j-8">
          <mxGeometry width="50" height="50" relative="1" as="geometry">
            <mxPoint x="160" y="40" as="sourcePoint" />
            <mxPoint x="200" y="20" as="targetPoint" />
          </mxGeometry>
        </mxCell>
        <mxCell id="BD58i8v402gFr6tfGI4j-6" value="" style="endArrow=none;html=1;rounded=0;" edge="1" parent="BD58i8v402gFr6tfGI4j-8">
          <mxGeometry width="50" height="50" relative="1" as="geometry">
            <mxPoint y="20" as="sourcePoint" />
            <mxPoint x="40" y="40" as="targetPoint" />
          </mxGeometry>
        </mxCell>
        <mxCell id="BD58i8v402gFr6tfGI4j-7" value="" style="endArrow=none;html=1;rounded=0;" edge="1" parent="BD58i8v402gFr6tfGI4j-8">
          <mxGeometry width="50" height="50" relative="1" as="geometry">
            <mxPoint y="20" as="sourcePoint" />
            <mxPoint x="40" as="targetPoint" />
          </mxGeometry>
        </mxCell>
        <mxCell id="BD58i8v402gFr6tfGI4j-10" value="i=0; i &amp;lt; array.Length: i++" style="text;html=1;align=center;verticalAlign=middle;resizable=0;points=[];autosize=1;strokeColor=none;fillColor=none;" vertex="1" parent="BD58i8v402gFr6tfGI4j-8">
          <mxGeometry x="25" y="5" width="150" height="30" as="geometry" />
        </mxCell>
        <mxCell id="BD58i8v402gFr6tfGI4j-13" style="edgeStyle=orthogonalEdgeStyle;rounded=0;orthogonalLoop=1;jettySize=auto;html=1;" edge="1" parent="1" source="BD58i8v402gFr6tfGI4j-11">
          <mxGeometry relative="1" as="geometry">
            <mxPoint x="260" y="380" as="targetPoint" />
          </mxGeometry>
        </mxCell>
        <mxCell id="BD58i8v402gFr6tfGI4j-11" value="int count = 0" style="rounded=0;whiteSpace=wrap;html=1;" vertex="1" parent="1">
          <mxGeometry x="200" y="280" width="120" height="60" as="geometry" />
        </mxCell>
      </root>
    </mxGraphModel>
  </diagram>
</mxfile>
